{"title":"The.Contractor.2013.DVDRiP.x264.AC3 - BiTo","uid":8870124,"size":1510448152,"categoryP":"video","categoryS":"movies","magnet":"?xt=urn:btih:93ed97416067684c7ddd7e68f7cbd01e9329967b&amp;dn=The.Contractor.2013.DVDRiP.x264.AC3+-+BiTo&amp;tr=udp%3A%2F%2Ftracker.openbittorrent.com%3A80&amp;tr=udp%3A%2F%2Fopen.demonii.com%3A1337&amp;tr=udp%3A%2F%2Ftracker.coppersurfer.tk%3A6969&amp;tr=udp%3A%2F%2Fexodus.desync.com%3A6969","seeders":0,"leechers":1,"uploader":"xxxlavalxxx","files":-1,"time":1377996503,"description":" &lt;a href=&quot;\nhttp://www.imdb.com/title/tt2274172/&quot; rel=&quot;nofollow&quot; target=&quot;_NEW&quot;&gt;\nhttp://www.imdb.com/title/tt2274172/&lt;/a&gt;\n\n\nElizabeth Chase is busy remodeling her new home with her lawyer husband, Paul and daughter, McKenzie. To make sure it's finished before a charity event they're hosting, the couple hire a contractor, Javier, to help. However Elizabeth starts to grow suspicious of Javier and learns that he'd targeted the family all along. Now, to save her family, Elizabeth will have to take matters into her own hands. \n\n\n\nDirector:\n Sean Olson \n\nWriters:\n Bradford Holt, Sean Olson\n\nStars:\n Danny Trejo, Christina Cox, Brad Rowe\n\nGenres:\n  Thriller \n\nCountry:\n USA \n\n\n\n\nSource:  DVDRETAIL\n Sample: Yes\n Audio: 6Ch @ English\n Codec: x264\n Container: Mkv\n\n Video\n ID                                       : 1\n Format                                   : AVC\n Format/Info                              : Advanced Video Codec\n Format profile                           : &lt;a class=&quot;__cf_email__&quot; href=&quot;/cdn-cgi/l/email-protection&quot; data-cfemail=&quot;0f476668674f433b213e&quot;&gt;[email&amp;#160;protected]&lt;/a&gt;&lt;script cf-hash='f9e31' type=&quot;text/javascript&quot;&gt;\n/* &lt;![CDATA[ */!function(){try{var t=&quot;currentScript&quot;in document?document.currentScript:function(){for(var t=document.getElementsByTagName(&quot;script&quot;),e=t.length;e--;)if(t[e].getAttribute(&quot;cf-hash&quot;))return t[e]}();if(t&amp;&amp;t.previousSibling){var e,r,n,i,c=t.previousSibling,a=c.getAttribute(&quot;data-cfemail&quot;);if(a){for(e=&quot;&quot;,r=parseInt(a.substr(0,2),16),n=2;a.length-n;n+=2)i=parseInt(a.substr(n,2),16)^r,e+=String.fromCharCode(i);e=document.createTextNode(e),c.parentNode.replaceChild(e,c)}}}catch(u){}}();/* ]]&gt; */&lt;/script&gt;\n Format settings, CABAC                   : Yes\n Format settings, ReFrames                : 4 frames\n Codec ID                                 : V_MPEG4/ISO/AVC\n Duration                                 : 1h 28mn\n Bit rate                                 : 1 864 Kbps\n Width                                    : 720 pixels\n Height                                   : 400 pixels\n Display aspect ratio                     : 16:9\n Frame rate mode                          : Constant\n Frame rate                               : 23.976 fps\n Color space                              : YUV\n Chroma subsampling                       : 4:2:0\n Bit depth                                : 8 bits\n Scan type                                : Progressive\n Bits/(Pixel*Frame)                       : 0.270\n Stream size                              : 1.13 GiB (81%)\n Writing library                          : x264 core 133 r2334 a3ac64b\n\n\n Audio\n ID                                       : 2\n Format                                   : AC-3\n Format/Info                              : Audio Coding 3\n Mode extension                           : CM (complete main)\n Format settings, Endianness              : Big\n Codec ID                                 : A_AC3\n Duration                                 : 1h 28mn\n Bit rate mode                            : Constant\n Bit rate                                 : 384 Kbps\n Channel(s)                               : 6 channels\n Channel positions                        : Front: L C R, Side: L R, LFE\n Sampling rate                            : 48.0 KHz\n Bit depth                                : 16 bits\n Compression mode                         : Lossy\n Stream size                              : 243 MiB (17%)\n Default                                  : Yes\n Forced                                   : No\n\n\n &lt;a href=&quot;\nhttp://bayimg.com/DaPpiAaEe&quot; rel=&quot;nofollow&quot; target=&quot;_NEW&quot;&gt;\nhttp://bayimg.com/DaPpiAaEe&lt;/a&gt; &lt;a href=&quot;\nhttp://bayimg.com/DaPPkaAEE&quot; rel=&quot;nofollow&quot; target=&quot;_NEW&quot;&gt;\nhttp://bayimg.com/DaPPkaAEE&lt;/a&gt;","torrent":{"xt":"urn:btih:93ed97416067684c7ddd7e68f7cbd01e9329967b","amp;dn":"The.Contractor.2013.DVDRiP.x264.AC3+-+BiTo","amp;tr":["udp%3A%2F%2Ftracker.openbittorrent.com%3A80","udp%3A%2F%2Fopen.demonii.com%3A1337","udp%3A%2F%2Ftracker.coppersurfer.tk%3A6969","udp%3A%2F%2Fexodus.desync.com%3A6969"],"infoHash":"93ed97416067684c7ddd7e68f7cbd01e9329967b","infoHashBuffer":{"type":"Buffer","data":[147,237,151,65,96,103,104,76,125,221,126,104,247,203,208,30,147,41,150,123]},"announce":[],"urlList":[]}}